C:\Users\Maarten\Documents\Software\Sim\PredictSimpleIntervention\PredSimResults\Fal22Ref_13\Falisse_et_al_2022_job25.mot
version=1
nRows=4
nColumns=124
inDegrees=yes
endheader
                time	         pelvis_tilt	         pelvis_list	     pelvis_rotation	           pelvis_tx	           pelvis_ty	           pelvis_tz	       hip_flexion_r	     hip_adduction_r	      hip_rotation_r	        knee_angle_r	       ankle_angle_r	    subtalar_angle_r	         mtp_angle_r	       hip_flexion_l	     hip_adduction_l	      hip_rotation_l	        knee_angle_l	       ankle_angle_l	    subtalar_angle_l	         mtp_angle_l	    lumbar_extension	      lumbar_bending	     lumbar_rotation	          arm_flex_r	           arm_add_r	           arm_rot_r	        elbow_flex_r	          arm_flex_l	           arm_add_l	           arm_rot_l	        elbow_flex_l	glut_med1_r/activation	glut_med2_r/activation	glut_med3_r/activation	glut_min1_r/activation	glut_min2_r/activation	glut_min3_r/activation	semimem_r/activation	semiten_r/activation	bifemlh_r/activation	bifemsh_r/activation	    sar_r/activation	add_long_r/activation	add_brev_r/activation	add_mag1_r/activation	add_mag2_r/activation	add_mag3_r/activation	    tfl_r/activation	   pect_r/activation	   grac_r/activation	glut_max1_r/activation	glut_max2_r/activation	glut_max3_r/activation	iliacus_r/activation	  psoas_r/activation	quad_fem_r/activation	    gem_r/activation	   peri_r/activation	rect_fem_r/activation	vas_med_r/activation	vas_int_r/activation	vas_lat_r/activation	med_gas_r/activation	lat_gas_r/activation	 soleus_r/activation	tib_post_r/activation	flex_dig_r/activation	flex_hal_r/activation	tib_ant_r/activation	per_brev_r/activation	per_long_r/activation	per_tert_r/activation	ext_dig_r/activation	ext_hal_r/activation	glut_med1_l/activation	glut_med2_l/activation	glut_med3_l/activation	glut_min1_l/activation	glut_min2_l/activation	glut_min3_l/activation	semimem_l/activation	semiten_l/activation	bifemlh_l/activation	bifemsh_l/activation	    sar_l/activation	add_long_l/activation	add_brev_l/activation	add_mag1_l/activation	add_mag2_l/activation	add_mag3_l/activation	    tfl_l/activation	   pect_l/activation	   grac_l/activation	glut_max1_l/activation	glut_max2_l/activation	glut_max3_l/activation	iliacus_l/activation	  psoas_l/activation	quad_fem_l/activation	    gem_l/activation	   peri_l/activation	rect_fem_l/activation	vas_med_l/activation	vas_int_l/activation	vas_lat_l/activation	med_gas_l/activation	lat_gas_l/activation	 soleus_l/activation	tib_post_l/activation	flex_dig_l/activation	flex_hal_l/activation	tib_ant_l/activation	per_brev_l/activation	per_long_l/activation	per_tert_l/activation	ext_dig_l/activation	ext_hal_l/activation	 ercspn_r/activation	 ercspn_l/activation	 intobl_r/activation	 intobl_l/activation	 extobl_r/activation	 extobl_l/activation	
          0.56490714	        -10.32025147	          2.44665950	         -4.11752787	          0.73437929	          0.89114002	          0.00630001	        -11.13658677	          0.35230780	          9.40803170	         -6.80367972	          2.81104732	         -4.71055146	         32.85986456	         36.50832204	          2.82176068	         -1.66199224	         -7.58381583	         13.54457987	         -8.37250440	          0.30652094	          2.73943563	         -0.67931555	          1.08541420	         -3.61011714	        -13.47354762	         17.70946876	         80.41150621	         -3.58002484	        -13.46837450	         12.38962819	         11.31846699	          0.09816594	          0.08394327	          0.09314789	          0.12460600	          0.12648104	          0.12596941	          0.03320556	          0.01611739	          0.01678958	          0.05066973	          0.06862560	          0.11296281	          0.01000245	          0.12279671	          0.05443530	          0.06660683	          0.22005185	          0.01184768	          0.01414275	          0.02077315	          0.01993635	          0.02471149	          0.30243183	          0.46499956	          0.03586223	          0.03001198	          0.13794318	          0.15377375	          0.01827391	          0.02160636	          0.02320928	          0.25692708	          0.36215335	          0.28503674	          0.34119751	          0.38245240	          0.39600267	          0.01000011	          0.01000009	          0.01000003	          0.01000020	          0.01000007	          0.01000046	          0.01000003	          0.01000015	          0.04524947	          0.01000013	          0.01000013	          0.01000018	          0.24261825	          0.04443899	          0.05051801	          0.01000028	          0.01729248	          0.07887498	          0.20821477	          0.23699827	          0.15466224	          0.07336786	          0.01000017	          0.02690625	          0.10357628	          0.01945836	          0.07023055	          0.07901588	          0.01676722	          0.01462175	          0.43408211	          0.05254773	          0.06542622	          0.01412081	          0.06157647	          0.06893852	          0.05866645	          0.01498859	          0.01443872	          0.01677959	          0.02369374	          0.01852956	          0.01993457	          0.33547419	          0.21213439	          0.19766648	          0.10593989	          0.36469729	          0.15583891	          0.03596273	          0.04732105	          0.01412070	          0.04192196	          0.01188313	          0.04195114	
          0.57620529	        -10.29657868	          2.76876665	         -4.36461167	          0.75214422	          0.88958532	          0.00621280	        -10.96949811	          0.04142160	          8.83063873	         -9.16560519	          2.40851843	         -4.19640400	         34.27065659	         35.82871008	          3.23033835	         -1.32147524	         -8.32402436	         12.72746705	         -8.72316643	          0.27112381	          2.89960701	         -1.19944908	          1.10663042	         -4.40710502	        -13.48724039	         17.86107080	         82.85215044	         -4.16081716	        -13.49958913	         11.46282417	         10.34909514	          0.19851443	          0.07064136	          0.07838738	          0.13813505	          0.10643861	          0.10600793	          0.02794439	          0.01356363	          0.01412918	          0.04264045	          0.05775107	          0.09506270	          0.07968389	          0.10333821	          0.04581031	          0.05605261	          0.18518196	          0.04070678	          0.01190232	          0.01748182	          0.01677745	          0.02079575	          0.25450751	          0.39131424	          0.03017940	          0.02525629	          0.11608427	          0.12940628	          0.01537844	          0.01818278	          0.01953167	          0.21621356	          0.30476537	          0.26404922	          0.29819278	          0.32185210	          0.33328185	          0.01000010	          0.01000030	          0.01000051	          0.01000034	          0.01000011	          0.01000051	          0.15353326	          0.18738701	          0.32639140	          0.17185928	          0.12943920	          0.18694872	          0.20417216	          0.03973067	          0.05557526	          0.02368280	          0.01455241	          0.06637626	          0.17522042	          0.19944282	          0.13015411	          0.06576578	          0.01000968	          0.02264356	          0.08716373	          0.01637542	          0.13202513	          0.06649998	          0.01411033	          0.01230482	          0.36594849	          0.05283372	          0.28426456	          0.01188322	          0.05181897	          0.05801440	          0.04937006	          0.01412075	          0.01412094	          0.01412069	          0.01993916	          0.01559339	          0.01677575	          0.41683212	          0.26502567	          0.16634373	          0.18815535	          0.48753815	          0.13114482	          0.05508662	          0.05425293	          0.01188309	          0.06263231	          0.01000012	          0.03530343	
          0.58750343	        -10.27121622	          3.07834670	         -4.58437822	          0.76989610	          0.88813932	          0.00608400	        -10.65813509	         -0.26376817	          8.24433457	        -11.76574013	          1.93369578	         -3.67369298	         35.36411813	         35.11574722	          3.61247121	         -0.97155500	         -8.99743697	         11.87307061	         -9.07617595	          0.26552659	          3.05561381	         -1.71381880	          1.12271133	         -5.18397332	        -13.50054814	         18.01054055	         85.06325092	         -4.69323395	        -13.53186441	         10.69221719	          9.40012220	          0.16705768	          0.05944732	          0.06596586	          0.19967541	          0.08957215	          0.08920961	          0.02825243	          0.01141516	          0.01189043	          0.03588352	          0.04859974	          0.12112961	          0.09863133	          0.08696338	          0.03855543	          0.04717111	          0.15583845	          0.03425783	          0.01001678	          0.01471205	          0.01411915	          0.01750053	          0.21417743	          0.32930539	          0.02539710	          0.02125420	          0.09768920	          0.10890029	          0.02945570	          0.03025552	          0.02838327	          0.18195164	          0.25647126	          0.23353585	          0.28965924	          0.30843488	          0.32320871	          0.01000012	          0.01000957	          0.01473179	          0.01000089	          0.01000024	          0.01000085	          0.21976259	          0.32866269	          0.45739892	          0.14462662	          0.18436910	          0.26278780	          0.17181837	          0.05505318	          0.04676914	          0.01993006	          0.01224649	          0.05585810	          0.14745446	          0.16783863	          0.10953043	          0.09183719	          0.01000047	          0.01905587	          0.07335190	          0.19706625	          0.18824448	          0.11270083	          0.01187439	          0.01035499	          0.33653269	          0.04448147	          0.23922239	          0.01000024	          0.04361039	          0.05355292	          0.04239122	          0.01188314	          0.01188331	          0.01188309	          0.01677955	          0.01312247	          0.01411745	          0.52279977	          0.32866526	          0.19212673	          0.48817114	          0.53167035	          0.31851453	          0.08258898	          0.07785273	          0.01000007	          0.05270747	          0.01000005	          0.02970914	
          0.59880157	        -10.24591207	          3.36977085	         -4.77803588	          0.78742694	          0.88699803	          0.00589514	        -10.17684264	         -0.56179038	          7.66174350	        -14.60645002	          1.39090507	         -3.13922152	         35.95076227	         34.46300961	          4.00275917	         -0.62278857	         -9.71833821	         10.89675324	         -9.41912931	          0.24906383	          3.19341884	         -2.21434268	          1.13543607	         -5.89478852	        -13.51144990	         18.16613084	         86.97668863	         -5.13405141	        -13.55322407	         10.07654006	          8.44894412	          0.14058530	          0.05002713	          0.05551271	          0.16803487	          0.07537839	          0.07507322	          0.02378862	          0.01000294	          0.01000673	          0.03019731	          0.04089857	          0.10230179	          0.16188296	          0.07318378	          0.03523985	          0.03969675	          0.13114523	          0.02883300	          0.01000178	          0.01238135	          0.01188234	          0.01472753	          0.18023819	          0.27712263	          0.02137262	          0.01788632	          0.08220907	          0.09164375	          0.03345561	          0.03345609	          0.03198840	          0.15311898	          0.21582999	          0.20724104	          0.26807227	          0.25956224	          0.28409160	          0.01000022	          0.01000037	          0.04664596	          0.01000068	          0.01000021	          0.01000096	          0.27478489	          0.38861957	          0.51802915	          0.12171052	          0.15516810	          0.25866954	          0.14459147	          0.05471279	          0.04449277	          0.01677197	          0.01030606	          0.04700671	          0.12408843	          0.14124285	          0.11483253	          0.11164121	          0.01000065	          0.01603707	          0.06172921	          0.25302197	          0.21993731	          0.13734574	          0.01000013	          0.01000013	          0.29052289	          0.03743357	          0.22641147	          0.01000017	          0.14259071	          0.15924501	          0.13202618	          0.01000014	          0.01000032	          0.01000007	          0.01412062	          0.01104318	          0.01188047	          0.59069082	          0.33749816	          0.18714146	          0.54992986	          0.57031318	          0.31928726	          0.11209815	          0.08932790	          0.01000002	          0.04435530	          0.01000004	          0.02500134	
